<svg width="512" height="512" viewBox="0 0 512 512" fill="none" xmlns="http://www.w3.org/2000/svg" role="img" aria-labelledby="title desc">
  <title id="title">Moonweave Agent Ontology mark</title>
  <desc id="desc">A lunar ontology emblem with woven cyan and lilac graph threads.</desc>
  <rect width="512" height="512" rx="128" fill="#05071A"/>
  <circle cx="256" cy="256" r="166" fill="#0B1029" stroke="#99F6FF" stroke-width="3"/>
  <circle cx="256" cy="256" r="116" fill="#111633" stroke="#B8A7FF" stroke-width="2" stroke-dasharray="10 14"/>
  <path d="M124 267C168 208 216 178 256 178C296 178 344 208 388 267" stroke="#66E8FF" stroke-width="10" stroke-linecap="round"/>
  <path d="M124 245C171 303 216 334 256 334C296 334 341 303 388 245" stroke="#EAB8FF" stroke-width="10" stroke-linecap="round"/>
  <path d="M170 165L342 347" stroke="#A7FFE8" stroke-width="8" stroke-linecap="round" opacity="0.82"/>
  <path d="M342 165L170 347" stroke="#66E8FF" stroke-width="8" stroke-linecap="round" opacity="0.82"/>
  <circle cx="124" cy="256" r="22" fill="#66E8FF"/>
  <circle cx="388" cy="256" r="22" fill="#66E8FF"/>
  <circle cx="256" cy="178" r="24" fill="#FFF7E8"/>
  <circle cx="256" cy="334" r="24" fill="#FFF7E8"/>
  <circle cx="170" cy="165" r="18" fill="#B8A7FF"/>
  <circle cx="342" cy="165" r="18" fill="#B8A7FF"/>
  <circle cx="170" cy="347" r="18" fill="#A7FFE8"/>
  <circle cx="342" cy="347" r="18" fill="#A7FFE8"/>
  <circle cx="256" cy="256" r="42" fill="#05071A" stroke="#FFF7E8" stroke-width="5"/>
  <path d="M247 236H265V276H247V236Z" fill="#FFF7E8"/>
  <path d="M236 247H276V265H236V247Z" fill="#FFF7E8"/>
</svg>
